<svg width="34" height="35" viewBox="0 0 34 35" fill="none" xmlns="http://www.w3.org/2000/svg">
<path d="M0 16.7708C0 8.86521 0 4.9124 2.37279 2.45583C4.74557 -0.000729114 8.56542 2.56611e-10 16.2037 2.56611e-10H17.6127C25.251 2.56611e-10 29.0709 0 31.4436 2.45583C33.8164 4.9124 33.8164 8.86521 33.8164 16.7708V18.2292C33.8164 26.1348 33.8164 30.0883 31.4436 32.5442C29.0701 35 25.251 35 17.6127 35H16.2037C8.56542 35 4.74628 35 2.37279 32.5442C0 30.0876 0 26.1348 0 18.2292V16.7708Z" fill="#38356A"/>
<path fill-rule="evenodd" clip-rule="evenodd" d="M9.15863 10.9375H6.69285C5.98834 10.9375 5.84744 11.2802 5.84744 11.6594C5.84744 12.3353 6.68299 15.688 9.73985 20.1221C11.7773 23.1503 14.6482 24.7917 17.2605 24.7917C18.828 24.7917 19.0218 24.4271 19.0218 23.7993V21.5104C19.0218 20.7812 19.1697 20.6354 19.6664 20.6354C20.0327 20.6354 20.6597 20.825 22.1223 22.2848C23.7941 24.0151 24.0696 24.7917 25.0101 24.7917H27.4759C28.1804 24.7917 28.5326 24.4271 28.329 23.7074C28.1071 22.9906 27.3089 21.9501 26.2493 20.7171C25.6744 20.0142 24.8121 19.2566 24.5514 18.8781C24.1851 18.3918 24.2908 18.1752 24.5514 17.7428C24.5514 17.7428 27.5555 13.3627 27.8697 11.8759C28.0261 11.3349 27.8697 10.9375 27.1229 10.9375H24.6578C24.0308 10.9375 23.742 11.2802 23.5856 11.6594C23.5856 11.6594 22.3315 14.8225 20.5555 16.8773C19.9806 17.4723 19.7192 17.6619 19.4057 17.6619C19.2493 17.6619 19.0225 17.4723 19.0225 16.932V11.8759C19.0225 11.227 18.84 10.9375 18.318 10.9375H14.4432C14.0514 10.9375 13.8161 11.2386 13.8161 11.5245C13.8161 12.1392 14.7038 12.2814 14.7954 14.0109V17.7698C14.7954 18.5938 14.6517 18.7432 14.3375 18.7432C13.5019 18.7432 11.4687 15.5655 10.2626 11.9299C10.0259 11.2219 9.78847 10.9375 9.15863 10.9375Z" fill="white"/>
</svg>
