<svg width="34" height="35" viewBox="0 0 34 35" fill="none" xmlns="http://www.w3.org/2000/svg">
<path d="M16.84 35H16.9752C23.6905 35 27.5891 34.3 30.3501 31.525C33.1654 28.5825 33.8164 24.5212 33.8164 17.5975V17.4025C33.8164 10.4812 33.1654 6.44625 30.3501 3.47375C27.5916 0.7 23.6651 0 16.9777 0H16.8424C10.1272 0 6.22607 0.7 3.4651 3.475C0.652197 6.41625 0 10.48 0 17.4012V17.5962C0 24.5175 0.649782 28.5525 3.46631 31.525C6.1995 34.3 10.1272 35 16.84 35Z" fill="#38356A"/>
<path d="M29.7921 17.235C29.7913 17.1705 29.7667 17.1087 29.7234 17.0622C29.6801 17.0158 29.6213 16.9882 29.559 16.985C24.9369 16.8038 22.1227 16.1938 20.1553 14.1575C18.183 12.1163 17.5948 9.20251 17.4197 4.40751C17.4175 4.34273 17.3911 4.28137 17.346 4.23636C17.3009 4.19135 17.2408 4.16622 17.1781 4.16626H16.6395C16.5771 4.16714 16.5174 4.19257 16.4725 4.23739C16.4277 4.28221 16.401 4.34304 16.3979 4.40751C16.2228 9.20001 15.6346 12.1163 13.6623 14.1575C11.6924 16.195 8.88073 16.8038 4.25858 16.985C4.19599 16.9873 4.1367 17.0146 4.09322 17.0613C4.04973 17.1079 4.02544 17.1702 4.02548 17.235V17.7938C4.02548 17.9275 4.12935 18.0375 4.25858 18.0438C8.88073 18.225 11.6948 18.835 13.6623 20.8725C15.631 22.91 16.2179 25.815 16.3955 30.5913C16.3977 30.656 16.4241 30.7174 16.4692 30.7624C16.5142 30.8074 16.5744 30.8326 16.637 30.8325H17.1781C17.2407 30.8316 17.3005 30.806 17.3454 30.7609C17.3904 30.7158 17.4169 30.6547 17.4197 30.59C17.5972 25.815 18.1842 22.9088 20.1529 20.8725C22.1227 18.8325 24.9356 18.225 29.5578 18.0438C29.6204 18.0415 29.6797 18.0142 29.7232 17.9675C29.7666 17.9209 29.7909 17.8586 29.7909 17.7938L29.7921 17.235Z" fill="white"/>
</svg>
