<svg width="34" height="35" viewBox="0 0 34 35" fill="none" xmlns="http://www.w3.org/2000/svg">
<path d="M16.9214 35C26.2668 35 33.8428 27.165 33.8428 17.5C33.8428 7.83502 26.2668 0 16.9214 0C7.57596 0 0 7.83502 0 17.5C0 27.165 7.57596 35 16.9214 35Z" fill="url(#paint0_linear_62_524)"/>
<path fill-rule="evenodd" clip-rule="evenodd" d="M7.64361 17.3091C12.5724 15.0739 15.8671 13.6292 17.5276 12.9205C22.2192 10.9033 23.1944 10.549 23.827 10.5217C23.9588 10.5217 24.2751 10.549 24.4859 10.7125C24.6441 10.8488 24.6968 11.0396 24.7231 11.1759C24.7495 11.3122 24.7759 11.6121 24.7495 11.8574C24.4859 14.6105 23.4053 21.3434 22.8254 24.4236C22.5882 25.732 22.1138 26.1681 21.6657 26.2227C20.6905 26.3044 19.9261 25.5412 18.9773 24.9143C17.5012 23.9057 16.6578 23.2787 15.2082 22.2974C13.5476 21.1526 14.6283 20.5256 15.5772 19.5171C15.8144 19.2445 20.1633 15.1829 20.2424 14.8013C20.2424 14.7468 20.2688 14.5833 20.1633 14.5015C20.0579 14.4197 19.9261 14.447 19.8207 14.4742C19.6625 14.5015 17.2904 16.137 12.6779 19.3535C11.9926 19.8442 11.3863 20.0622 10.8328 20.0622C10.2266 20.0622 9.06691 19.7079 8.19712 19.408C7.14282 19.0537 6.29939 18.8629 6.37846 18.2632C6.43118 17.9633 6.85289 17.6362 7.64361 17.3091Z" fill="white"/>
<defs>
<linearGradient id="paint0_linear_62_524" x1="0" y1="17.4873" x2="33.8183" y2="17.4873" gradientUnits="userSpaceOnUse">
<stop offset="1" stop-color="#38356A"/>
</linearGradient>
</defs>
</svg>
